<svg width="26" height="26" viewBox="0 0 26 26" fill="none" xmlns="http://www.w3.org/2000/svg">
<path d="M11.4617 22.4027L4.87167 18.595C4.49233 18.3761 4.19667 18.0838 3.98467 17.718C3.77267 17.3522 3.66667 16.9504 3.66667 16.5127V8.89733C3.66667 8.45978 3.77267 8.05811 3.98467 7.69233C4.19667 7.32656 4.49233 7.03422 4.87167 6.81533L11.4617 3.00767C11.841 2.789 12.2427 2.67967 12.6667 2.67967C13.0907 2.67967 13.4923 2.789 13.8717 3.00767L20.4617 6.81533C20.841 7.03422 21.1367 7.32656 21.3487 7.69233C21.5607 8.05811 21.6667 8.45978 21.6667 8.89733V16.5127C21.6667 16.9504 21.5607 17.3522 21.3487 17.718C21.1367 18.0838 20.841 18.3761 20.4617 18.595L13.8717 22.4027C13.4923 22.6213 13.0907 22.7307 12.6667 22.7307C12.2427 22.7307 11.841 22.6213 11.4617 22.4027ZM11.6667 20.2207V13.2667L5.66667 9.82033V16.5127C5.66667 16.5811 5.68378 16.6452 5.718 16.705C5.75222 16.765 5.80344 16.8163 5.87167 16.859L11.6667 20.2207ZM13.6667 20.2207L19.4617 16.859C19.5299 16.8163 19.5811 16.765 19.6153 16.705C19.6496 16.6452 19.6667 16.5811 19.6667 16.5127V9.82033L13.6667 13.2667V20.2207ZM0 6V2.41033C0 1.74544 0.235445 1.17744 0.706333 0.706333C1.17744 0.235445 1.74544 0 2.41033 0H6V2H2.41033C2.29056 2 2.19222 2.03845 2.11533 2.11533C2.03844 2.19222 2 2.29056 2 2.41033V6H0ZM6 25.3333H2.41033C1.74544 25.3333 1.17744 25.0979 0.706333 24.627C0.235445 24.1559 0 23.5879 0 22.923V19.3333H2V22.923C2 23.0428 2.03844 23.1411 2.11533 23.218C2.19222 23.2949 2.29056 23.3333 2.41033 23.3333H6V25.3333ZM19.3333 25.3333V23.3333H22.923C23.0428 23.3333 23.1411 23.2949 23.218 23.218C23.2949 23.1411 23.3333 23.0428 23.3333 22.923V19.3333H25.3333V22.923C25.3333 23.5879 25.0979 24.1559 24.627 24.627C24.1559 25.0979 23.5879 25.3333 22.923 25.3333H19.3333ZM23.3333 6V2.41033C23.3333 2.29056 23.2949 2.19222 23.218 2.11533C23.1411 2.03845 23.0428 2 22.923 2H19.3333V0H22.923C23.5879 0 24.1559 0.235445 24.627 0.706333C25.0979 1.17744 25.3333 1.74544 25.3333 2.41033V6H23.3333ZM12.6667 11.5437L18.6257 8.07167L12.8717 4.75633C12.8034 4.71367 12.7351 4.69233 12.6667 4.69233C12.5982 4.69233 12.5299 4.71367 12.4617 4.75633L6.70767 8.07167L12.6667 11.5437Z" fill="#ED2939"/>
</svg>
