<svg preserveAspectRatio="none" width="100%" height="100%" overflow="visible" style="display: block;" viewBox="0 0 165.105 16.3349" fill="none" xmlns="http://www.w3.org/2000/svg">
<g id="Group">
<path id="Vector" d="M4.80214 3.47389H0V0.268205H13.0845V3.47389H8.27602V16.0603H4.80214V3.47389Z" fill="var(--fill-0, white)"/>
<path id="Vector_2" d="M16.8458 0.268205H28.7617V3.35894H20.3005V6.56462H27.7464V9.65536H20.3005V12.9696H28.8703V16.0603H16.8458V0.268205Z" fill="var(--fill-0, white)"/>
<path id="Vector_3" d="M31.7375 8.21217V8.16747C31.7375 3.67823 35.122 0 39.9752 0C42.951 0 44.7391 0.989802 46.2014 2.43938L43.9919 4.98733C42.7722 3.88258 41.5334 3.20568 39.9497 3.20568C37.2868 3.20568 35.3711 5.41518 35.3711 8.12277V8.16747C35.3711 10.8751 37.2421 13.1293 39.9497 13.1293C41.7569 13.1293 42.8616 12.4077 44.1005 11.2774L46.31 13.5124C44.688 15.2493 42.8808 16.3349 39.8348 16.3349C35.1859 16.3349 31.7375 12.7461 31.7375 8.21217Z" fill="var(--fill-0, white)"/>
<path id="Vector_4" d="M49.4901 0.268205H52.964V6.51992H59.369V0.268205H62.8492V16.0603H59.369V9.72561H52.964V16.0603H49.4901V0.268205Z" fill="var(--fill-0, white)"/>
<path id="Vector_5" d="M67.3704 0.268205H70.5761L77.9773 9.99381V0.268205H81.4064V16.0603H78.4498L70.7996 6.02183V16.0603H67.3704V0.268205Z" fill="var(--fill-0, white)"/>
<g id="Group_2">
<path id="Vector_6" d="M98.2778 8.21217V8.16747C98.2778 5.45988 96.2918 3.20568 93.4948 3.20568C90.6978 3.20568 88.7565 5.41518 88.7565 8.12277V8.16747C88.7565 10.8751 90.7425 13.1293 93.5395 13.1293C96.3365 13.1293 98.2778 10.9198 98.2778 8.21217ZM85.123 8.21217V8.16747C85.123 3.67823 88.6671 0 93.5395 0C98.4119 0 101.911 3.63353 101.911 8.12277V8.16747C101.911 12.6567 98.3672 16.3349 93.4948 16.3349C88.6224 16.3349 85.123 12.7014 85.123 8.21217Z" fill="var(--fill-0, white)"/>
<path id="Vector_7" d="M104.613 13.7614L106.669 11.3029C108.093 12.4779 109.581 13.2186 111.381 13.2186C112.806 13.2186 113.661 12.6567 113.661 11.7308V11.6861C113.661 10.8048 113.118 10.3514 110.481 9.6809C107.301 8.8699 105.245 7.98866 105.245 4.85322V4.80852C105.245 1.94129 107.544 0.0510865 110.775 0.0510865C113.074 0.0510865 115.041 0.772684 116.643 2.05623L114.836 4.67442C113.438 3.70378 112.065 3.11628 110.73 3.11628C109.395 3.11628 108.699 3.72293 108.699 4.48923V4.53393C108.699 5.56844 109.376 5.91327 112.103 6.60932C115.309 7.44587 117.116 8.59531 117.116 11.3476V11.3923C117.116 14.5277 114.721 16.2902 111.318 16.2902C108.923 16.2902 106.509 15.4537 104.619 13.7614" fill="var(--fill-0, white)"/>
<path id="Vector_8" d="M119.945 13.7614L122.001 11.3029C123.425 12.4779 124.913 13.2186 126.714 13.2186C128.138 13.2186 128.994 12.6567 128.994 11.7308V11.6861C128.994 10.8048 128.451 10.3514 125.813 9.6809C122.633 8.8699 120.577 7.98866 120.577 4.85322V4.80852C120.577 1.94129 122.876 0.0510865 126.107 0.0510865C128.406 0.0510865 130.373 0.772684 131.976 2.05623L130.169 4.67442C128.77 3.70378 127.391 3.11628 126.062 3.11628C124.734 3.11628 124.032 3.72293 124.032 4.48923V4.53393C124.032 5.56844 124.709 5.91327 127.442 6.60932C130.648 7.44587 132.448 8.59531 132.448 11.3476V11.3923C132.448 14.5277 130.054 16.2902 126.65 16.2902C124.255 16.2902 121.841 15.4537 119.951 13.7614" fill="var(--fill-0, white)"/>
<path id="Vector_9" d="M135.807 9.29137V0.268205H139.281V9.20197C139.281 11.7755 140.565 13.1037 142.685 13.1037C144.805 13.1037 146.095 11.8202 146.095 9.31053V0.261819H149.569V9.17642C149.569 13.9594 146.887 16.303 142.64 16.303C138.394 16.303 135.801 13.9339 135.801 9.28498" fill="var(--fill-0, white)"/>
<path id="Vector_10" d="M152.602 13.7614L154.652 11.3029C156.076 12.4779 157.564 13.2186 159.371 13.2186C160.795 13.2186 161.651 12.6567 161.651 11.7308V11.6861C161.651 10.8048 161.108 10.3514 158.471 9.6809C155.29 8.8699 153.234 7.98866 153.234 4.85322V4.80852C153.234 1.94129 155.533 0.0510865 158.764 0.0510865C161.063 0.0510865 163.03 0.772684 164.633 2.05623L162.826 4.67442C161.427 3.70378 160.048 3.11628 158.72 3.11628C157.391 3.11628 156.689 3.72293 156.689 4.48923V4.53393C156.689 5.56844 157.366 5.91327 160.099 6.60932C163.305 7.44587 165.105 8.59531 165.105 11.3476V11.3923C165.105 14.5277 162.717 16.2902 159.307 16.2902C156.919 16.2902 154.499 15.4537 152.608 13.7614" fill="var(--fill-0, white)"/>
</g>
</g>
</svg>
