<svg preserveAspectRatio="none" width="100%" height="100%" overflow="visible" style="display: block;" viewBox="0 0 16 16" fill="none" xmlns="http://www.w3.org/2000/svg">
<g id="location_on">
<mask id="mask0_2109_1643" style="mask-type:alpha" maskUnits="userSpaceOnUse" x="0" y="0" width="16" height="16">
<rect id="Bounding box" width="16" height="16" fill="var(--fill-0, #D9D9D9)"/>
</mask>
<g mask="url(#mask0_2109_1643)">
<path id="location_on_2" d="M8.85128 7.557C9.08684 7.32156 9.20461 7.03761 9.20461 6.70517C9.20461 6.37272 9.08684 6.08872 8.85128 5.85317C8.61584 5.61772 8.33189 5.5 7.99945 5.5C7.667 5.5 7.38306 5.61772 7.14762 5.85317C6.91206 6.08872 6.79428 6.37272 6.79428 6.70517C6.79428 7.03761 6.91206 7.32156 7.14762 7.557C7.38306 7.79245 7.667 7.91017 7.99945 7.91017C8.33189 7.91017 8.61584 7.79245 8.85128 7.557ZM7.99945 13.009C9.30367 11.8414 10.3017 10.7216 10.9936 9.64933C11.6855 8.57711 12.0314 7.638 12.0314 6.832C12.0314 5.61667 11.6453 4.61756 10.8731 3.83467C10.1009 3.05178 9.143 2.66033 7.99945 2.66033C6.85589 2.66033 5.898 3.05178 5.12578 3.83467C4.35356 4.61756 3.96745 5.61667 3.96745 6.832C3.96745 7.638 4.31339 8.57711 5.00528 9.64933C5.69717 10.7216 6.69523 11.8414 7.99945 13.009ZM7.99945 14.3397C6.32167 12.8859 5.06356 11.5329 4.22511 10.2808C3.38667 9.02861 2.96745 7.879 2.96745 6.832C2.96745 5.29356 3.46506 4.04806 4.46028 3.0955C5.45561 2.14294 6.63534 1.66667 7.99945 1.66667C9.36356 1.66667 10.5433 2.14294 11.5386 3.0955C12.5338 4.04806 13.0314 5.29356 13.0314 6.832C13.0314 7.879 12.6122 9.02861 11.7738 10.2808C10.9353 11.5329 9.67723 12.8859 7.99945 14.3397Z" fill="var(--fill-0, #A1A1AA)"/>
</g>
</g>
</svg>
