<svg preserveAspectRatio="none" width="100%" height="100%" overflow="visible" style="display: block;" viewBox="0 0 122.006 12.0708" fill="none" xmlns="http://www.w3.org/2000/svg">
<g id="Group">
<path id="Vector" d="M3.54856 2.56705H0V0.198191H9.6689V2.56705H6.11561V11.8679H3.54856V2.56705Z" fill="var(--fill-0, #343434)"/>
<path id="Vector_2" d="M12.4483 0.198191H21.2536V2.48211H15.0012V4.85096H20.5033V7.13488H15.0012V9.58396H21.3339V11.8679H12.4483V0.198191Z" fill="var(--fill-0, #343434)"/>
<path id="Vector_3" d="M23.4526 6.06842V6.03539C23.4526 2.71805 25.9536 0 29.5399 0C31.7389 0 33.0602 0.731419 34.1408 1.80259L32.5081 3.68541C31.6068 2.86905 30.6913 2.36886 29.521 2.36886C27.5533 2.36886 26.1376 4.00157 26.1376 6.00236V6.03539C26.1376 8.03618 27.5203 9.70193 29.521 9.70193C30.8565 9.70193 31.6728 9.1687 32.5883 8.33346L34.221 9.98506C33.0224 11.2686 31.687 12.0708 29.4361 12.0708C26.0008 12.0708 23.4526 9.4188 23.4526 6.06842Z" fill="var(--fill-0, #343434)"/>
<path id="Vector_4" d="M36.571 0.198191H39.138V4.81793H43.871V0.198191H46.4428V11.8679H43.871V7.18679H39.138V11.8679H36.571V0.198191Z" fill="var(--fill-0, #343434)"/>
<path id="Vector_5" d="M49.7837 0.198191H52.1526L57.6217 7.38498V0.198191H60.1557V11.8679H57.9709L52.3177 4.44986V11.8679H49.7837V0.198191Z" fill="var(--fill-0, #343434)"/>
<g id="Group_2">
<path id="Vector_6" d="M72.6229 6.06842V6.03539C72.6229 4.03461 71.1553 2.36886 69.0885 2.36886C67.0216 2.36886 65.5871 4.00157 65.5871 6.00236V6.03539C65.5871 8.03618 67.0547 9.70193 69.1215 9.70193C71.1884 9.70193 72.6229 8.06921 72.6229 6.06842ZM62.9021 6.06842V6.03539C62.9021 2.71805 65.521 0 69.1215 0C72.722 0 75.3079 2.68502 75.3079 6.00236V6.03539C75.3079 9.35273 72.689 12.0708 69.0885 12.0708C65.488 12.0708 62.9021 9.38577 62.9021 6.06842Z" fill="var(--fill-0, #343434)"/>
<path id="Vector_7" d="M77.304 10.1691L78.8234 8.35234C79.8757 9.22061 80.9752 9.76799 82.3059 9.76799C83.3582 9.76799 83.9906 9.35273 83.9906 8.6685V8.63547C83.9906 7.98427 83.5895 7.64923 81.6406 7.15376C79.2906 6.55446 77.7711 5.90326 77.7711 3.58632V3.55328C77.7711 1.43453 79.4699 0.0377507 81.8577 0.0377507C83.5564 0.0377507 85.0098 0.570979 86.1943 1.51946L84.8588 3.45419C83.8254 2.73692 82.8109 2.30279 81.8246 2.30279C80.8384 2.30279 80.324 2.75108 80.324 3.31734V3.35037C80.324 4.11482 80.8242 4.36964 82.8392 4.884C85.208 5.50216 86.5435 6.35155 86.5435 8.38537V8.4184C86.5435 10.7354 84.7739 12.0378 82.2588 12.0378C80.4892 12.0378 78.7055 11.4196 77.3087 10.1691" fill="var(--fill-0, #343434)"/>
<path id="Vector_8" d="M88.6339 10.1691L90.1534 8.35234C91.2057 9.22061 92.3052 9.76799 93.6359 9.76799C94.6882 9.76799 95.3205 9.35273 95.3205 8.6685V8.63547C95.3205 7.98427 94.9194 7.64923 92.9705 7.15376C90.6205 6.55446 89.1011 5.90326 89.1011 3.58632V3.55328C89.1011 1.43453 90.7998 0.0377507 93.1876 0.0377507C94.8864 0.0377507 96.3398 0.570979 97.5242 1.51946L96.1888 3.45419C95.1553 2.73692 94.1361 2.30279 93.1545 2.30279C92.173 2.30279 91.654 2.75108 91.654 3.31734V3.35037C91.654 4.11482 92.1541 4.36964 94.1738 4.884C96.5427 5.50216 97.8734 6.35155 97.8734 8.38537V8.4184C97.8734 10.7354 96.1038 12.0378 93.5887 12.0378C91.8191 12.0378 90.0354 11.4196 88.6386 10.1691" fill="var(--fill-0, #343434)"/>
<path id="Vector_9" d="M100.355 6.86591V0.198191H102.923V6.79984C102.923 8.70153 103.871 9.68305 105.438 9.68305C107.004 9.68305 107.958 8.73457 107.958 6.88006V0.193472H110.525V6.78097C110.525 10.3154 108.543 12.0472 105.405 12.0472C102.267 12.0472 100.351 10.2965 100.351 6.86119" fill="var(--fill-0, #343434)"/>
<path id="Vector_10" d="M112.766 10.1691L114.281 8.35234C115.333 9.22061 116.433 9.76799 117.768 9.76799C118.82 9.76799 119.453 9.35273 119.453 8.6685V8.63547C119.453 7.98427 119.052 7.64923 117.103 7.15376C114.753 6.55446 113.233 5.90326 113.233 3.58632V3.55328C113.233 1.43453 114.932 0.0377507 117.32 0.0377507C119.018 0.0377507 120.472 0.570979 121.656 1.51946L120.321 3.45419C119.287 2.73692 118.268 2.30279 117.287 2.30279C116.305 2.30279 115.786 2.75108 115.786 3.31734V3.35037C115.786 4.11482 116.286 4.36964 118.306 4.884C120.675 5.50216 122.006 6.35155 122.006 8.38537V8.4184C122.006 10.7354 120.241 12.0378 117.721 12.0378C115.956 12.0378 114.168 11.4196 112.771 10.1691" fill="var(--fill-0, #343434)"/>
</g>
</g>
</svg>
