<svg preserveAspectRatio="none" width="100%" height="100%" overflow="visible" style="display: block;" viewBox="0 0 30.0001 27.8805" fill="none" xmlns="http://www.w3.org/2000/svg">
<g id="Group">
<path id="Vector" d="M12.9168 1.22923V6.23527C12.9168 6.91421 12.3664 7.46431 11.6875 7.46431C9.26518 7.46431 7.94754 9.94877 7.76491 14.8523H11.6875C12.3664 14.8523 12.9168 15.4029 12.9168 16.0816V26.6516C12.9168 27.3302 12.3664 27.8804 11.6875 27.8804H1.22904C0.549848 27.8804 0 27.3298 0 26.6516V16.0816C0 13.7309 0.236681 11.5738 0.703253 9.66946C1.18177 7.7168 1.91631 6.00951 2.8858 4.59484C3.8834 3.14098 5.13126 2.00012 6.595 1.20534C8.06863 0.405746 9.78228 0.00019177 11.6879 0.00019177C12.3664 0.00019177 12.9168 0.550298 12.9168 1.22923ZM28.7706 7.4644C29.4492 7.4644 30 6.91378 30 6.23536V1.22932C30 0.550384 29.4493 0.000277664 28.7706 0.000277664C26.8657 0.000277664 25.1518 0.405918 23.6787 1.20542C22.2147 2.0002 20.9662 3.14107 19.9684 4.59492C18.9992 6.00959 18.2647 7.71698 17.7861 9.67006C17.3198 11.575 17.0831 13.7321 17.0831 16.0817V26.6517C17.0831 27.3303 17.6337 27.8805 18.3124 27.8805H28.7705C29.4491 27.8805 29.9994 27.3298 29.9994 26.6517V16.0816C29.9994 15.403 29.4492 14.8523 28.7705 14.8523H24.9039C25.0838 9.94886 26.3822 7.4644 28.7706 7.4644Z" fill="var(--fill-0, #ED2939)"/>
</g>
</svg>
