<svg preserveAspectRatio="none" width="100%" height="100%" overflow="visible" style="display: block;" viewBox="0 0 162.674 16.0944" fill="none" xmlns="http://www.w3.org/2000/svg">
<g id="Group">
<path id="Vector" d="M4.73142 3.42273H0V0.264255H12.8919V3.42273H8.15415V15.8238H4.73142V3.42273Z" fill="var(--fill-0, #343434)"/>
<path id="Vector_2" d="M16.5977 0.264255H28.3382V3.30948H20.0016V6.46795H27.3378V9.51317H20.0016V12.7786H28.4451V15.8238H16.5977V0.264255Z" fill="var(--fill-0, #343434)"/>
<path id="Vector_3" d="M31.2702 8.09123V8.04719C31.2702 3.62407 34.6048 0 39.3865 0C42.3185 0 44.0802 0.975225 45.521 2.40346L43.3441 4.91388C42.1423 3.8254 40.9217 3.15847 39.3614 3.15847C36.7377 3.15847 34.8502 5.33543 34.8502 8.00315V8.04719C34.8502 10.7149 36.6937 12.9359 39.3614 12.9359C41.142 12.9359 42.2304 12.2249 43.451 11.1113L45.628 13.3134C44.0299 15.0248 42.2493 16.0944 39.2481 16.0944C34.6677 16.0944 31.2702 12.5584 31.2702 8.09123Z" fill="var(--fill-0, #343434)"/>
<path id="Vector_4" d="M48.7613 0.264255H52.184V6.42391H58.4947V0.264255H61.9237V15.8238H58.4947V9.58238H52.184V15.8238H48.7613V0.264255Z" fill="var(--fill-0, #343434)"/>
<path id="Vector_5" d="M66.3783 0.264255H69.5368L76.8289 9.84664V0.264255H80.2076V15.8238H77.2945L69.757 5.93315V15.8238H66.3783V0.264255Z" fill="var(--fill-0, #343434)"/>
<g id="Group_2">
<path id="Vector_6" d="M96.8305 8.09123V8.04719C96.8305 5.37947 94.8738 3.15847 92.118 3.15847C89.3622 3.15847 87.4495 5.33543 87.4495 8.00315V8.04719C87.4495 10.7149 89.4062 12.9359 92.162 12.9359C94.9178 12.9359 96.8305 10.7589 96.8305 8.09123ZM83.8694 8.09123V8.04719C83.8694 3.62407 87.3614 0 92.162 0C96.9626 0 100.411 3.58002 100.411 8.00315V8.04719C100.411 12.4703 96.9186 16.0944 92.118 16.0944C87.3173 16.0944 83.8694 12.5144 83.8694 8.09123Z" fill="var(--fill-0, #343434)"/>
<path id="Vector_7" d="M103.072 13.5588L105.098 11.1365C106.501 12.2941 107.967 13.024 109.741 13.024C111.144 13.024 111.987 12.4703 111.987 11.558V11.514C111.987 10.6457 111.453 10.199 108.854 9.53834C105.721 8.73928 103.695 7.87102 103.695 4.78175V4.73771C103.695 1.9127 105.96 0.0503342 109.144 0.0503342C111.409 0.0503342 113.346 0.761305 114.926 2.02595L113.145 4.60558C111.767 3.64923 110.414 3.07039 109.099 3.07039C107.784 3.07039 107.099 3.66811 107.099 4.42312V4.46716C107.099 5.48643 107.766 5.82619 110.452 6.51199C113.611 7.33622 115.391 8.46874 115.391 11.1805V11.2245C115.391 14.3138 113.032 16.0503 109.678 16.0503C107.319 16.0503 104.941 15.2261 103.078 13.5588" fill="var(--fill-0, #343434)"/>
<path id="Vector_8" d="M118.179 13.5588L120.204 11.1365C121.608 12.2941 123.074 13.024 124.848 13.024C126.251 13.024 127.094 12.4703 127.094 11.558V11.514C127.094 10.6457 126.559 10.199 123.961 9.53834C120.827 8.73928 118.801 7.87102 118.801 4.78175V4.73771C118.801 1.9127 121.066 0.0503342 124.25 0.0503342C126.515 0.0503342 128.453 0.761305 130.032 2.02595L128.252 4.60558C126.874 3.64923 125.515 3.07039 124.206 3.07039C122.897 3.07039 122.205 3.66811 122.205 4.42312V4.46716C122.205 5.48643 122.872 5.82619 125.565 6.51199C128.724 7.33622 130.498 8.46874 130.498 11.1805V11.2245C130.498 14.3138 128.138 16.0503 124.785 16.0503C122.425 16.0503 120.047 15.2261 118.185 13.5588" fill="var(--fill-0, #343434)"/>
<path id="Vector_9" d="M133.807 9.15454V0.264255H137.23V9.06646C137.23 11.602 138.495 12.9107 140.584 12.9107C142.672 12.9107 143.943 11.6461 143.943 9.17342V0.257963H147.366V9.04129C147.366 13.7538 144.724 16.0629 140.54 16.0629C136.355 16.0629 133.801 13.7287 133.801 9.14825" fill="var(--fill-0, #343434)"/>
<path id="Vector_10" d="M150.355 13.5588L152.374 11.1365C153.777 12.2941 155.243 13.024 157.024 13.024C158.427 13.024 159.27 12.4703 159.27 11.558V11.514C159.27 10.6457 158.735 10.199 156.137 9.53834C153.004 8.73928 150.978 7.87102 150.978 4.78175V4.73771C150.978 1.9127 153.243 0.0503342 156.426 0.0503342C158.691 0.0503342 160.629 0.761305 162.208 2.02595L160.428 4.60558C159.05 3.64923 157.691 3.07039 156.382 3.07039C155.074 3.07039 154.381 3.66811 154.381 4.42312V4.46716C154.381 5.48643 155.048 5.82619 157.741 6.51199C160.9 7.33622 162.674 8.46874 162.674 11.1805V11.2245C162.674 14.3138 160.321 16.0503 156.961 16.0503C154.608 16.0503 152.223 15.2261 150.361 13.5588" fill="var(--fill-0, #343434)"/>
</g>
</g>
</svg>
