<svg preserveAspectRatio="none" width="100%" height="100%" overflow="visible" style="display: block;" viewBox="0 0 258.55 25.58" fill="none" xmlns="http://www.w3.org/2000/svg">
<g id="Group">
<path id="Vector" d="M7.52 5.44H0V0.42H20.49V5.44H12.96V25.15H7.52V5.44Z" fill="var(--fill-0, white)"/>
<path id="Vector_2" d="M26.38 0.42H45.04V5.26H31.79V10.28H43.45V15.12H31.79V20.31H45.21V25.15H26.38V0.42Z" fill="var(--fill-0, white)"/>
<path id="Vector_3" d="M49.7 12.86V12.79C49.7 5.76 55 0 62.6 0C67.26 0 70.06 1.55 72.35 3.82L68.89 7.81C66.98 6.08 65.04 5.02 62.56 5.02C58.39 5.02 55.39 8.48 55.39 12.72V12.79C55.39 17.03 58.32 20.56 62.56 20.56C65.39 20.56 67.12 19.43 69.06 17.66L72.52 21.16C69.98 23.88 67.15 25.58 62.38 25.58C55.1 25.58 49.7 19.96 49.7 12.86Z" fill="var(--fill-0, white)"/>
<path id="Vector_4" d="M77.5 0.42H82.94V10.21H92.97V0.42H98.42V25.15H92.97V15.23H82.94V25.15H77.5V0.42Z" fill="var(--fill-0, white)"/>
<path id="Vector_5" d="M105.5 0.42H110.52L122.11 15.65V0.42H127.48V25.15H122.85L110.87 9.43V25.15H105.5V0.42Z" fill="var(--fill-0, white)"/>
<g id="Group_2">
<path id="Vector_6" d="M153.9 12.86V12.79C153.9 8.55 150.79 5.02 146.41 5.02C142.03 5.02 138.99 8.48 138.99 12.72V12.79C138.99 17.03 142.1 20.56 146.48 20.56C150.86 20.56 153.9 17.1 153.9 12.86ZM133.3 12.86V12.79C133.3 5.76 138.85 0 146.48 0C154.11 0 159.59 5.69 159.59 12.72V12.79C159.59 19.82 154.04 25.58 146.41 25.58C138.78 25.58 133.3 19.89 133.3 12.86Z" fill="var(--fill-0, white)"/>
<path id="Vector_7" d="M163.82 21.55L167.04 17.7C169.27 19.54 171.6 20.7 174.42 20.7C176.65 20.7 177.99 19.82 177.99 18.37V18.3C177.99 16.92 177.14 16.21 173.01 15.16C168.03 13.89 164.81 12.51 164.81 7.6V7.53C164.81 3.04 168.41 0.0799999 173.47 0.0799999C177.07 0.0799999 180.15 1.21 182.66 3.22L179.83 7.32C177.64 5.8 175.49 4.88 173.4 4.88C171.31 4.88 170.22 5.83 170.22 7.03V7.1C170.22 8.72 171.28 9.26 175.55 10.35C180.57 11.66 183.4 13.46 183.4 17.77V17.84C183.4 22.75 179.65 25.51 174.32 25.51C170.57 25.51 166.79 24.2 163.83 21.55" fill="var(--fill-0, white)"/>
<path id="Vector_8" d="M187.83 21.55L191.05 17.7C193.28 19.54 195.61 20.7 198.43 20.7C200.66 20.7 202 19.82 202 18.37V18.3C202 16.92 201.15 16.21 197.02 15.16C192.04 13.89 188.82 12.51 188.82 7.6V7.53C188.82 3.04 192.42 0.0799999 197.48 0.0799999C201.08 0.0799999 204.16 1.21 206.67 3.22L203.84 7.32C201.65 5.8 199.49 4.88 197.41 4.88C195.33 4.88 194.23 5.83 194.23 7.03V7.1C194.23 8.72 195.29 9.26 199.57 10.35C204.59 11.66 207.41 13.46 207.41 17.77V17.84C207.41 22.75 203.66 25.51 198.33 25.51C194.58 25.51 190.8 24.2 187.84 21.55" fill="var(--fill-0, white)"/>
<path id="Vector_9" d="M212.67 14.55V0.42H218.11V14.41C218.11 18.44 220.12 20.52 223.44 20.52C226.76 20.52 228.78 18.51 228.78 14.58V0.41H234.22V14.37C234.22 21.86 230.02 25.53 223.37 25.53C216.72 25.53 212.66 21.82 212.66 14.54" fill="var(--fill-0, white)"/>
<path id="Vector_10" d="M238.97 21.55L242.18 17.7C244.41 19.54 246.74 20.7 249.57 20.7C251.8 20.7 253.14 19.82 253.14 18.37V18.3C253.14 16.92 252.29 16.21 248.16 15.16C243.18 13.89 239.96 12.51 239.96 7.6V7.53C239.96 3.04 243.56 0.0799999 248.62 0.0799999C252.22 0.0799999 255.3 1.21 257.81 3.22L254.98 7.32C252.79 5.8 250.63 4.88 248.55 4.88C246.47 4.88 245.37 5.83 245.37 7.03V7.1C245.37 8.72 246.43 9.26 250.71 10.35C255.73 11.66 258.55 13.46 258.55 17.77V17.84C258.55 22.75 254.81 25.51 249.47 25.51C245.73 25.51 241.94 24.2 238.98 21.55" fill="var(--fill-0, white)"/>
</g>
</g>
</svg>
