<svg preserveAspectRatio="none" width="100%" height="100%" overflow="visible" style="display: block;" viewBox="0 0 16 11.2727" fill="none" xmlns="http://www.w3.org/2000/svg">
<g id="g12">
<path id="path14" d="M6.36364 3.25739V8.01535L10.5455 5.63625L6.36364 3.25739ZM15.6656 9.51245C15.4816 10.2054 14.9395 10.751 14.2511 10.9362C13.0034 11.2727 8 11.2727 8 11.2727C8 11.2727 2.99666 11.2727 1.7489 10.9362C1.06051 10.751 0.518324 10.2054 0.334339 9.51245C0 8.25661 0 5.63636 0 5.63636C0 5.63636 0 3.01615 0.334339 1.76026C0.518324 1.06736 1.06051 0.521733 1.7489 0.33647C2.99666 0 8 0 8 0C8 0 13.0034 0 14.2511 0.33647C14.9395 0.521733 15.4816 1.06736 15.6656 1.76026C16 3.01615 16 5.63636 16 5.63636C16 5.63636 16 8.25661 15.6656 9.51245Z" fill="var(--fill-0, #E1E0E0)"/>
</g>
</svg>
