<svg preserveAspectRatio="none" width="100%" height="100%" overflow="visible" style="display: block;" viewBox="0 0 16 16" fill="none" xmlns="http://www.w3.org/2000/svg">
<g id="mail">
<mask id="mask0_2109_1673" style="mask-type:alpha" maskUnits="userSpaceOnUse" x="0" y="0" width="16" height="16">
<rect id="Bounding box" width="16" height="16" fill="var(--fill-0, #D9D9D9)"/>
</mask>
<g mask="url(#mask0_2109_1673)">
<path id="mail_2" d="M2.87183 13C2.53506 13 2.25 12.8833 2.01667 12.65C1.78333 12.4167 1.66667 12.1316 1.66667 11.7948V4.20517C1.66667 3.86839 1.78333 3.58333 2.01667 3.35C2.25 3.11667 2.53506 3 2.87183 3H13.1282C13.4649 3 13.75 3.11667 13.9833 3.35C14.2167 3.58333 14.3333 3.86839 14.3333 4.20517V11.7948C14.3333 12.1316 14.2167 12.4167 13.9833 12.65C13.75 12.8833 13.4649 13 13.1282 13H2.87183ZM8 8.37183L2.66667 4.9615V11.7948C2.66667 11.8547 2.68589 11.9039 2.72433 11.9423C2.76278 11.9808 2.81194 12 2.87183 12H13.1282C13.1881 12 13.2372 11.9808 13.2757 11.9423C13.3141 11.9039 13.3333 11.8547 13.3333 11.7948V4.9615L8 8.37183ZM8 7.33333L13.2308 4H2.76917L8 7.33333ZM2.66667 4.9615V4V11.7948C2.66667 11.8547 2.68589 11.9039 2.72433 11.9423C2.76278 11.9808 2.81194 12 2.87183 12H2.66667V4.9615Z" fill="var(--fill-0, #A1A1AA)"/>
</g>
</g>
</svg>
