<svg preserveAspectRatio="none" width="100%" height="100%" overflow="visible" style="display: block;" viewBox="0 0 32 32" fill="none" xmlns="http://www.w3.org/2000/svg">
<g id="Frame 2087330072">
<rect x="0.5" y="0.5" width="31" height="31" stroke="var(--stroke-0, #E1E0E0)"/>
<path id="Path 2520" d="M21.6328 21.5774H19.2621V17.9014C19.2621 17.0248 19.2463 15.8963 18.0291 15.8963C16.7943 15.8963 16.6054 16.8514 16.6054 17.8375V21.5772H14.2347V14.0177H16.5106V15.0508H16.5424C16.7702 14.6652 17.0993 14.348 17.4947 14.133C17.8902 13.9179 18.3371 13.8131 18.7879 13.8297C21.1907 13.8297 21.6338 15.3946 21.6338 17.4304L21.6328 21.5774ZM11.5598 12.9844C11.2877 12.9844 11.0216 12.9046 10.7954 12.755C10.5691 12.6053 10.3928 12.3926 10.2886 12.1437C10.1844 11.8948 10.1571 11.6209 10.2101 11.3567C10.2632 11.0924 10.3942 10.8497 10.5865 10.6591C10.7789 10.4686 11.024 10.3388 11.2909 10.2862C11.5577 10.2336 11.8343 10.2605 12.0858 10.3636C12.3372 10.4667 12.552 10.6412 12.7033 10.8652C12.8545 11.0892 12.9352 11.3525 12.9353 11.6219C12.9353 11.8008 12.8997 11.978 12.8306 12.1433C12.7615 12.3085 12.6602 12.4587 12.5325 12.5852C12.4048 12.7118 12.2531 12.8121 12.0862 12.8806C11.9193 12.9491 11.7404 12.9844 11.5598 12.9844ZM12.7451 21.5774H10.3719V14.0177H12.7451V21.5774ZM22.8147 8.08014H9.18066C8.87121 8.07668 8.57301 8.19501 8.35163 8.40912C8.13024 8.62324 8.00378 8.91562 8 9.22203V22.7777C8.00365 23.0843 8.13004 23.3769 8.35142 23.5912C8.57279 23.8056 8.87105 23.9241 9.18066 23.9209H22.8147C23.1249 23.9247 23.424 23.8065 23.6462 23.5921C23.8685 23.3778 23.9957 23.0849 24 22.7777V9.22105C23.9956 8.91404 23.8683 8.62132 23.646 8.40721C23.4237 8.1931 23.1247 8.07511 22.8147 8.07916" fill="var(--fill-0, #E1E0E0)"/>
</g>
</svg>
