<svg preserveAspectRatio="none" width="100%" height="100%" overflow="visible" style="display: block;" viewBox="0 0 16 16" fill="none" xmlns="http://www.w3.org/2000/svg">
<g id="Symbol.svg" clip-path="url(#clip0_2221_13811)">
<path id="Vector" d="M4.68661 0.0560722C3.83541 0.0962322 3.25413 0.232072 2.74597 0.431752C2.22005 0.636712 1.77429 0.911752 1.33077 1.35687C0.88725 1.80199 0.61413 2.24807 0.41061 2.77479C0.21365 3.28407 0.0802097 3.86583 0.0426097 4.71751C0.00500971 5.56919 -0.00331029 5.84295 0.000849709 8.01543C0.00500971 10.1879 0.0146097 10.4602 0.0558897 11.3137C0.0965297 12.1647 0.23189 12.7458 0.43157 13.2542C0.63685 13.7801 0.91157 14.2257 1.35685 14.6694C1.80213 15.113 2.24789 15.3855 2.77589 15.5894C3.28469 15.786 3.86661 15.9201 4.71813 15.9574C5.56965 15.9946 5.84373 16.0033 8.01557 15.9991C10.1874 15.995 10.4609 15.9854 11.3141 15.9449C12.1674 15.9044 12.7455 15.7681 13.254 15.5694C13.7799 15.3636 14.2258 15.0894 14.6692 14.6439C15.1125 14.1985 15.3855 13.7521 15.5889 13.225C15.786 12.7162 15.9199 12.1343 15.9569 11.2834C15.9941 10.4295 16.0029 10.1569 15.9988 7.98471C15.9946 5.81255 15.9849 5.54023 15.9444 4.68711C15.9039 3.83399 15.7684 3.25463 15.5689 2.74599C15.3633 2.22007 15.0888 1.77479 14.6437 1.33079C14.1986 0.886792 13.7519 0.613992 13.225 0.411112C12.7159 0.214152 12.1343 0.0799122 11.2828 0.0431122C10.4312 0.00631216 10.1572 -0.00312784 7.98453 0.00103216C5.81189 0.00519216 5.53989 0.0144722 4.68661 0.0560722ZM4.78005 14.5182C4.00005 14.4842 3.57653 14.3546 3.29429 14.2462C2.92053 14.1022 2.65429 13.9281 2.37301 13.6495C2.09173 13.371 1.91893 13.1038 1.77301 12.7308C1.66341 12.4486 1.53141 12.0255 1.49493 11.2455C1.45525 10.4025 1.44693 10.1494 1.44229 8.01351C1.43765 5.87767 1.44581 5.62487 1.48277 4.78151C1.51605 4.00215 1.64645 3.57815 1.75477 3.29607C1.89877 2.92183 2.07221 2.65607 2.35141 2.37495C2.63061 2.09383 2.89701 1.92071 3.27029 1.77479C3.55221 1.66471 3.97525 1.53383 4.75493 1.49671C5.59861 1.45671 5.85141 1.44871 7.98693 1.44407C10.1225 1.43943 10.3759 1.44743 11.2199 1.48455C11.9992 1.51847 12.4234 1.64759 12.7052 1.75655C13.0791 1.90055 13.3452 2.07351 13.6263 2.35319C13.9074 2.63287 14.0807 2.89831 14.2266 3.27239C14.3368 3.55351 14.4677 3.97639 14.5045 4.75655C14.5447 5.60023 14.5538 5.85319 14.5576 7.98855C14.5615 10.1239 14.554 10.3775 14.517 11.2206C14.4829 12.0006 14.3537 12.4242 14.245 12.7068C14.101 13.0804 13.9274 13.3468 13.6481 13.6278C13.3687 13.9087 13.1026 14.0818 12.7292 14.2278C12.4476 14.3377 12.0241 14.4689 11.245 14.506C10.4013 14.5457 10.1485 14.554 8.01221 14.5586C5.87589 14.5633 5.62389 14.5546 4.78021 14.5182M11.3018 3.72439C11.3021 3.91428 11.3587 4.0998 11.4645 4.2575C11.5703 4.4152 11.7204 4.538 11.896 4.61036C12.0715 4.68271 12.2646 4.70139 12.4508 4.66401C12.637 4.62663 12.8079 4.53488 12.9419 4.40037C13.0759 4.26585 13.167 4.09462 13.2037 3.90831C13.2404 3.72201 13.221 3.52901 13.148 3.35372C13.075 3.17843 12.9517 3.02872 12.7936 2.92354C12.6355 2.81835 12.4498 2.76241 12.2599 2.76279C12.0053 2.7633 11.7614 2.86489 11.5817 3.04521C11.4021 3.22554 11.3014 3.46984 11.3018 3.72439ZM3.89221 8.00807C3.89669 10.2769 5.73925 12.1119 8.00757 12.1076C10.2759 12.1033 12.1122 10.2609 12.1079 7.99207C12.1036 5.72327 10.2605 3.88775 7.99189 3.89223C5.72325 3.89671 3.88789 5.73959 3.89221 8.00807ZM5.33317 8.00519C5.33213 7.47777 5.48751 6.96188 5.77966 6.52276C6.07182 6.08364 6.48762 5.74102 6.9745 5.53821C7.46138 5.33541 7.99746 5.28154 8.51496 5.38341C9.03245 5.48529 9.50812 5.73832 9.8818 6.11053C10.2555 6.48274 10.5104 6.9574 10.6143 7.47449C10.7182 7.99158 10.6665 8.52787 10.4656 9.01555C10.2648 9.50322 9.92378 9.92038 9.48583 10.2143C9.04787 10.5082 8.5326 10.6656 8.00517 10.6666C7.65496 10.6674 7.30803 10.5991 6.98421 10.4657C6.66038 10.3324 6.366 10.1365 6.11787 9.8894C5.86975 9.64225 5.67274 9.34865 5.5381 9.02535C5.40346 8.70206 5.33382 8.3554 5.33317 8.00519Z" fill="var(--fill-0, #E1E0E0)"/>
</g>
<defs>
<clipPath id="clip0_2221_13811">
<rect width="16" height="16" fill="white"/>
</clipPath>
</defs>
</svg>
