<svg width="307" height="51" viewBox="0 0 307 51" fill="none" xmlns="http://www.w3.org/2000/svg">
<g clip-path="url(#clip0_40_65)">
<path d="M32.37 18.0796H24.85V13.0596H45.34V18.0796H37.81V37.7896H32.37V18.0796Z" fill="#343434"/>
<path d="M51.23 13.0596H69.89V17.8996H56.64V22.9196H68.3V27.7596H56.64V32.9496H70.06V37.7896H51.23V13.0596Z" fill="#343434"/>
<path d="M74.5499 25.4996V25.4296C74.5499 18.3996 79.8499 12.6396 87.4499 12.6396C92.1099 12.6396 94.9099 14.1896 97.1999 16.4596L93.7399 20.4496C91.8299 18.7196 89.8899 17.6596 87.4099 17.6596C83.2399 17.6596 80.2399 21.1196 80.2399 25.3596V25.4296C80.2399 29.6696 83.1699 33.1996 87.4099 33.1996C90.2399 33.1996 91.9699 32.0696 93.9099 30.2996L97.3699 33.7996C94.8299 36.5196 91.9999 38.2197 87.2299 38.2197C79.9499 38.2197 74.5499 32.5996 74.5499 25.4996Z" fill="#343434"/>
<path d="M102.35 13.0596H107.79V22.8496H117.82V13.0596H123.27V37.7896H117.82V27.8696H107.79V37.7896H102.35V13.0596Z" fill="#343434"/>
<path d="M130.35 13.0596H135.37L146.96 28.2896V13.0596H152.33V37.7896H147.7L135.72 22.0696V37.7896H130.35V13.0596Z" fill="#343434"/>
<path d="M178.75 25.4996V25.4296C178.75 21.1896 175.64 17.6596 171.26 17.6596C166.88 17.6596 163.84 21.1196 163.84 25.3596V25.4296C163.84 29.6696 166.95 33.1996 171.33 33.1996C175.71 33.1996 178.75 29.7396 178.75 25.4996ZM158.15 25.4996V25.4296C158.15 18.3996 163.7 12.6396 171.33 12.6396C178.96 12.6396 184.44 18.3296 184.44 25.3596V25.4296C184.44 32.4596 178.89 38.2197 171.26 38.2197C163.63 38.2197 158.15 32.5296 158.15 25.4996Z" fill="#343434"/>
<path d="M188.67 34.1897L191.89 30.3397C194.12 32.1797 196.45 33.3397 199.27 33.3397C201.5 33.3397 202.84 32.4597 202.84 31.0097V30.9397C202.84 29.5597 201.99 28.8497 197.86 27.7997C192.88 26.5297 189.66 25.1497 189.66 20.2397V20.1697C189.66 15.6797 193.26 12.7197 198.32 12.7197C201.92 12.7197 205 13.8497 207.51 15.8597L204.68 19.9597C202.49 18.4397 200.34 17.5197 198.25 17.5197C196.16 17.5197 195.07 18.4697 195.07 19.6697V19.7397C195.07 21.3597 196.13 21.8997 200.4 22.9897C205.42 24.2997 208.25 26.0997 208.25 30.4097V30.4797C208.25 35.3897 204.5 38.1497 199.17 38.1497C195.42 38.1497 191.64 36.8397 188.68 34.1897" fill="#343434"/>
<path d="M212.68 34.1897L215.9 30.3397C218.13 32.1797 220.46 33.3397 223.28 33.3397C225.51 33.3397 226.85 32.4597 226.85 31.0097V30.9397C226.85 29.5597 226 28.8497 221.87 27.7997C216.89 26.5297 213.67 25.1497 213.67 20.2397V20.1697C213.67 15.6797 217.27 12.7197 222.33 12.7197C225.93 12.7197 229.01 13.8497 231.52 15.8597L228.69 19.9597C226.5 18.4397 224.34 17.5197 222.26 17.5197C220.18 17.5197 219.08 18.4697 219.08 19.6697V19.7397C219.08 21.3597 220.14 21.8997 224.42 22.9897C229.44 24.2997 232.26 26.0997 232.26 30.4097V30.4797C232.26 35.3897 228.51 38.1497 223.18 38.1497C219.43 38.1497 215.65 36.8397 212.69 34.1897" fill="#343434"/>
<path d="M237.52 27.1898V13.0598H242.96V27.0498C242.96 31.0798 244.97 33.1598 248.29 33.1598C251.61 33.1598 253.63 31.1498 253.63 27.2198V13.0498H259.07V27.0098C259.07 34.4998 254.87 38.1698 248.22 38.1698C241.57 38.1698 237.51 34.4598 237.51 27.1798" fill="#343434"/>
<path d="M263.82 34.1897L267.03 30.3397C269.26 32.1797 271.59 33.3397 274.42 33.3397C276.65 33.3397 277.99 32.4597 277.99 31.0097V30.9397C277.99 29.5597 277.14 28.8497 273.01 27.7997C268.03 26.5297 264.81 25.1497 264.81 20.2397V20.1697C264.81 15.6797 268.41 12.7197 273.47 12.7197C277.07 12.7197 280.15 13.8497 282.66 15.8597L279.83 19.9597C277.64 18.4397 275.48 17.5197 273.4 17.5197C271.32 17.5197 270.22 18.4697 270.22 19.6697V19.7397C270.22 21.3597 271.28 21.8997 275.56 22.9897C280.58 24.2997 283.4 26.0997 283.4 30.4097V30.4797C283.4 35.3897 279.66 38.1497 274.32 38.1497C270.58 38.1497 266.79 36.8397 263.83 34.1897" fill="#343434"/>
<path d="M0 0V50.86H13.05V45.39H5.46V5.46H13.05V0H0Z" fill="#ED2939"/>
<path d="M294.03 5.46H301.04V45.39H294.03V50.86H306.51V0H294.03V5.46Z" fill="#ED2939"/>
</g>
<defs>
<clipPath id="clip0_40_65">
<rect width="306.51" height="50.86" fill="white"/>
</clipPath>
</defs>
</svg>
